<svg id="visual" viewBox="0 0 900 600" width="900" height="600" xmlns="http://www.w3.org/2000/svg" xmlns:xlink="http://www.w3.org/1999/xlink" version="1.1"><rect width="900" height="600" fill="#1C658C"></rect><g><g transform="translate(274 218)"><path d="M0 -77.2L66.9 -38.6L66.9 38.6L0 77.2L-66.9 38.6L-66.9 -38.6Z" fill="#9AD0EC"></path></g><g transform="translate(628 536)"><path d="M0 -71L61.5 -35.5L61.5 35.5L0 71L-61.5 35.5L-61.5 -35.5Z" fill="#9AD0EC"></path></g><g transform="translate(75 398)"><path d="M0 -62L53.7 -31L53.7 31L0 62L-53.7 31L-53.7 -31Z" fill="#9AD0EC"></path></g><g transform="translate(872 253)"><path d="M0 -48L41.6 -24L41.6 24L0 48L-41.6 24L-41.6 -24Z" fill="#9AD0EC"></path></g></g></svg>